# xmcd
#
# Track frame offsets:
# 150
# 11714
# 28445
# 47063
# 59325
# 71506
# 81267
# 89417
# 99422
# 109326
# 121971
#
# Disc length: 1832 seconds
#
#
# Revision: 0
# Processed by: cddbd v1.5PL3 Copyright (c) Steve Scherf et al.
# Submitted via: FreeRIP 2.70 
#
DISCID=9607260b
DTITLE=Cash, Johnny - The Best of Johnny Cash
DYEAR=1900
DGENRE=Country
TTITLE0=Ring of Fire
TTITLE1=A Boy Named Sue
TTITLE2=Sunday Morning Coming Down
TTITLE3=Folsom Prison Blues
TTITLE4=I Walk the Line
TTITLE5=Ballad of a Teenage Queen
TTITLE6=Guess Things Happen that Way
TTITLE7=The Ways of a Woman in Love
TTITLE8=Get Rhythm
TTITLE9=That Old Wheel
TTITLE10=The Long Black Veil
EXTD=
EXTT0=
EXTT1=
EXTT2=
EXTT3=
EXTT4=
EXTT5=
EXTT6=
EXTT7=
EXTT8=
EXTT9=
EXTT10=
PLAYORDER=
